<svg id="Layer_2" data-name="Layer 2" xmlns="http://www.w3.org/2000/svg" xmlns:xlink="http://www.w3.org/1999/xlink" viewBox="0 0 2219.05 1014.09"><defs><style>.cls-1{fill:#ffd43d;}.cls-2{fill:url(#linear-gradient);}.cls-3{fill:url(#linear-gradient-2);}.cls-4{fill:url(#linear-gradient-3);}.cls-5{fill:url(#linear-gradient-4);}.cls-6{fill:#306a99;}.cls-7{font-size:386.07px;fill:#fff;font-family:Roboto-Regular, Roboto;}</style><linearGradient id="linear-gradient" x1="510.95" y1="265.24" x2="510.95" y2="5.01" gradientUnits="userSpaceOnUse"><stop offset="0" stop-color="#4b8bbe"/><stop offset="1" stop-color="#3884b7"/></linearGradient><linearGradient id="linear-gradient-2" x1="-7679" y1="-7548.89" x2="-7679" y2="-7809.11" gradientTransform="translate(-1065.66 10989.74) rotate(55)" xlink:href="#linear-gradient"/><linearGradient id="linear-gradient-3" x1="-7679" y1="-7548.89" x2="-7679" y2="-7809.11" gradientTransform="translate(-8975.77 5229.44) rotate(110)" xlink:href="#linear-gradient"/><linearGradient id="linear-gradient-4" x1="-7679" y1="-7548.89" x2="-7679" y2="-7809.11" gradientTransform="matrix(-0.97, 0.26, -0.26, -0.97, -8794.26, -4554.11)" xlink:href="#linear-gradient"/></defs><circle class="cls-1" cx="432.74" cy="506.99" r="138.19"/><path class="cls-2" d="M407.47,246.11l-69.66-177a30.23,30.23,0,0,1,18.88-39.84,509.35,509.35,0,0,1,308.41-.71,30.23,30.23,0,0,1,19,39.75L615.31,245.63a30.29,30.29,0,0,1-36.21,18.19,259.91,259.91,0,0,0-135.38.32A30.26,30.26,0,0,1,407.47,246.11Z" transform="translate(-79.26 -5.01)"/><path class="cls-3" d="M669.85,273.87l105-158.59a30.23,30.23,0,0,1,43.47-7.38A509.28,509.28,0,0,1,995.82,360.12a30.23,30.23,0,0,1-21.63,38.4L789.45,443.84a30.29,30.29,0,0,1-35.67-19.22A260,260,0,0,0,675.87,313.9,30.25,30.25,0,0,1,669.85,273.87Z" transform="translate(-79.26 -5.01)"/><path class="cls-4" d="M797.6,504.71l190.16-4.92a30.24,30.24,0,0,1,31,31.37A509.25,509.25,0,0,1,913.92,821.21a30.24,30.24,0,0,1-43.87,4.3L727,700.18a30.28,30.28,0,0,1-4.71-40.24,259.83,259.83,0,0,0,46-127.33A30.27,30.27,0,0,1,797.6,504.71Z" transform="translate(-79.26 -5.01)"/><path class="cls-5" d="M681.79,741.77,794.88,894.71A30.24,30.24,0,0,1,787,938.09a509.48,509.48,0,0,1-297.72,80.5,30.23,30.23,0,0,1-28.68-33.47L481.15,796a30.29,30.29,0,0,1,30.27-26.94A260,260,0,0,0,642.1,733.74,30.28,30.28,0,0,1,681.79,741.77Z" transform="translate(-79.26 -5.01)"/><path class="cls-6" d="M421.17,782.87,360.75,963.24a30.22,30.22,0,0,1-40.07,18.38A509.25,509.25,0,0,1,84,783.93a30.24,30.24,0,0,1,11-42.7l166.72-91.59A30.29,30.29,0,0,1,301.07,659,259.79,259.79,0,0,0,405,745.76,30.26,30.26,0,0,1,421.17,782.87Z" transform="translate(-79.26 -5.01)"/><text class="cls-7" transform="translate(1010.51 648.95)">Desper</text></svg>